<svg xmlns="http://www.w3.org/2000/svg" xmlns:xlink="http://www.w3.org/1999/xlink" width="500" zoomAndPan="magnify" viewBox="0 0 375 374.999991" height="500" preserveAspectRatio="xMidYMid meet" version="1.0"><defs><g/><clipPath id="3ce637bc23"><path d="M 0 84.441406 L 169.5 84.441406 L 169.5 290.691406 L 0 290.691406 Z M 0 84.441406 " clip-rule="nonzero"/></clipPath><clipPath id="73e0ede164"><path d="M 0 287.585938 L 375 287.585938 L 375 375 L 0 375 Z M 0 287.585938 " clip-rule="nonzero"/></clipPath><clipPath id="7260faf512"><path d="M 0 0 L 375 0 L 375 87.003906 L 0 87.003906 Z M 0 0 " clip-rule="nonzero"/></clipPath><clipPath id="6f6579244f"><path d="M 167.644531 0 L 171.394531 0 L 171.394531 375 L 167.644531 375 Z M 167.644531 0 " clip-rule="nonzero"/></clipPath><clipPath id="e41fb6f248"><path d="M 310.632812 105.132812 L 321.167969 105.132812 L 321.167969 115.667969 L 310.632812 115.667969 Z M 310.632812 105.132812 " clip-rule="nonzero"/></clipPath><clipPath id="4fd542817a"><path d="M 315.898438 105.132812 C 312.992188 105.132812 310.632812 107.492188 310.632812 110.398438 C 310.632812 113.308594 312.992188 115.667969 315.898438 115.667969 C 318.808594 115.667969 321.167969 113.308594 321.167969 110.398438 C 321.167969 107.492188 318.808594 105.132812 315.898438 105.132812 Z M 315.898438 105.132812 " clip-rule="nonzero"/></clipPath></defs><rect x="-37.5" width="450" fill="#ffffff" y="-37.499999" height="449.999989" fill-opacity="1"/><rect x="-37.5" width="450" fill="#ffffff" y="-37.499999" height="449.999989" fill-opacity="1"/><rect x="-37.5" width="450" fill="#1f1f1f" y="-37.499999" height="449.999989" fill-opacity="1"/><g clip-path="url(#3ce637bc23)"><rect x="-37.5" width="450" fill="#ffffff" y="-37.499999" height="449.999989" fill-opacity="1"/><path fill="#1f1f1f" d="M 0 -17.785156 L 385.523438 -17.785156 L 385.523438 367.738281 L 0 367.738281 Z M 0 -17.785156 " fill-opacity="1" fill-rule="nonzero"/></g><path fill="#e91f63" d="M 136.761719 162.753906 C 149.984375 153.664062 158.851562 139.148438 158.851562 123.992188 C 158.851562 101.164062 138.738281 85.546875 113.921875 89.109375 L 76.515625 94.480469 L 68.996094 95.558594 L 62.148438 96.539062 C 55.550781 97.089844 50.371094 102.46875 50.371094 109.824219 L 61.472656 121.679688 L 61.472656 238.566406 C 61.472656 246.585938 68.578125 252.742188 76.515625 251.601562 L 121.441406 245.152344 C 146.257812 241.59375 166.371094 220.199219 166.371094 197.371094 C 166.371094 179.492188 154.03125 166.039062 136.761719 162.753906 Z M 136.761719 162.753906 " fill-opacity="1" fill-rule="nonzero"/><path fill="#ffffff" d="M 120.722656 207.871094 C 133.941406 204.644531 142.8125 194.066406 142.8125 178.910156 C 142.8125 156.085938 122.699219 131.539062 97.882812 124.089844 L 60.476562 112.859375 L 60.371094 112.828125 C 51.148438 110.058594 52.371094 97.449219 62.023438 96.554688 C 62.089844 96.546875 62.15625 96.542969 62.222656 96.539062 L 62.226562 96.488281 L 58.324219 96.488281 C 51.207031 96.488281 45.433594 101.796875 45.433594 108.34375 L 45.433594 254.765625 C 45.433594 261.117188 49.601562 266.71875 55.683594 268.542969 L 60.476562 269.984375 L 105.40625 283.472656 C 130.21875 290.921875 150.335938 278.457031 150.335938 255.628906 C 150.335938 237.75 137.996094 218.820312 120.722656 207.871094 Z M 120.722656 207.871094 " fill-opacity="1" fill-rule="nonzero"/><g fill="#ececec" fill-opacity="1"><g transform="translate(169.520355, 168.749989)"><g><path d="M 41.671875 -34.285156 C 41.671875 -41.910156 37.167969 -48.035156 24.859375 -48.035156 L 4.203125 -48.035156 L 4.203125 0 L 24.859375 0 C 37.527344 0 41.671875 -8.167969 41.671875 -15.730469 C 41.671875 -19.273438 40.710938 -22.515625 38.429688 -24.980469 C 40.769531 -27.378906 41.671875 -30.683594 41.671875 -34.285156 Z M 13.210938 -39.089844 L 27.980469 -39.089844 C 30.804688 -39.089844 32.722656 -36.628906 32.722656 -34.285156 C 32.722656 -32.246094 31.101562 -29.480469 27.980469 -29.480469 L 13.210938 -29.480469 Z M 27.082031 -9.007812 L 13.210938 -9.007812 L 13.210938 -20.535156 L 27.082031 -20.535156 C 29.84375 -20.535156 32.722656 -18.734375 32.722656 -14.769531 C 32.722656 -10.808594 29.722656 -9.007812 27.082031 -9.007812 Z M 27.082031 -9.007812 "/></g></g></g><g fill="#ececec" fill-opacity="1"><g transform="translate(215.387219, 168.749989)"><g><path d="M 32.542969 0 L 41.910156 0 L 27.800781 -47.914062 L 27.800781 -48.035156 L 18.375 -48.035156 L 4.203125 0 L 13.628906 0 L 17.171875 -11.949219 L 29 -11.949219 Z M 19.816406 -20.894531 L 23.117188 -32.0625 L 26.359375 -20.894531 Z M 19.816406 -20.894531 "/></g></g></g><g fill="#ececec" fill-opacity="1"><g transform="translate(261.494226, 168.749989)"><g><path d="M 24.136719 0.601562 L 25.21875 0.601562 C 35.546875 0.539062 41.429688 -6.183594 41.851562 -12.851562 C 42.332031 -19.816406 37.046875 -27.621094 24.316406 -29.242188 L 24.199219 -29.242188 C 19.574219 -29.78125 14.769531 -32.0625 15.011719 -35.425781 C 15.191406 -37.828125 18.792969 -40.050781 25.339844 -39.75 L 25.519531 -39.75 C 29.121094 -39.75 33.445312 -38.007812 35.667969 -36.386719 L 40.832031 -43.59375 C 37.40625 -46.054688 31.402344 -48.578125 25.640625 -48.578125 C 12.910156 -49.238281 6.726562 -42.753906 6.183594 -36.148438 C 5.882812 -32.304688 7.503906 -28.519531 10.628906 -25.640625 C 13.691406 -22.816406 18.074219 -21.015625 23.238281 -20.476562 C 30.261719 -19.515625 33.203125 -16.273438 33.023438 -13.449219 C 32.84375 -10.867188 30.082031 -8.285156 25.097656 -8.285156 L 24.796875 -8.285156 C 24.738281 -8.285156 18.195312 -7.925781 14.171875 -11.226562 C 13.148438 -12.007812 12.308594 -12.96875 11.527344 -14.109375 L 4.203125 -9.125 C 5.402344 -7.324219 6.90625 -5.703125 8.585938 -4.324219 C 14.050781 0.121094 21.257812 0.601562 24.136719 0.601562 Z M 24.136719 0.601562 "/></g></g></g><g fill="#ececec" fill-opacity="1"><g transform="translate(307.541197, 168.749989)"><g><path d="M 4.203125 -48.035156 L 13.210938 -48.035156 L 13.210938 -0.179688 L 4.203125 -0.179688 Z M 4.203125 -48.035156 "/></g></g></g><g fill="#ececec" fill-opacity="1"><g transform="translate(324.951391, 168.749989)"><g><path d="M 40.289062 -48.035156 L 4.203125 -48.035156 L 4.203125 -39.089844 L 17.773438 -39.089844 L 17.773438 0 L 26.71875 0 L 26.71875 -39.089844 L 40.289062 -39.089844 Z M 40.289062 -48.035156 "/></g></g></g><g fill="#e91f63" fill-opacity="1"><g transform="translate(179.282073, 252.749983)"><g><path d="M 13.148438 -8.945312 L 13.148438 -48.035156 L 4.203125 -48.035156 L 4.203125 0 L 32.003906 0 L 32.003906 -8.945312 Z M 13.148438 -8.945312 "/></g></g></g><g fill="#e91f63" fill-opacity="1"><g transform="translate(215.483281, 252.749983)"><g><path d="M 4.203125 -48.035156 L 13.210938 -48.035156 L 13.210938 -0.179688 L 4.203125 -0.179688 Z M 4.203125 -48.035156 "/></g></g></g><g fill="#e91f63" fill-opacity="1"><g transform="translate(232.893474, 252.749983)"><g><path d="M 24.136719 0.601562 L 25.21875 0.601562 C 35.546875 0.539062 41.429688 -6.183594 41.851562 -12.851562 C 42.332031 -19.816406 37.046875 -27.621094 24.316406 -29.242188 L 24.199219 -29.242188 C 19.574219 -29.78125 14.769531 -32.0625 15.011719 -35.425781 C 15.191406 -37.828125 18.792969 -40.050781 25.339844 -39.75 L 25.519531 -39.75 C 29.121094 -39.75 33.445312 -38.007812 35.667969 -36.386719 L 40.832031 -43.59375 C 37.40625 -46.054688 31.402344 -48.578125 25.640625 -48.578125 C 12.910156 -49.238281 6.726562 -42.753906 6.183594 -36.148438 C 5.882812 -32.304688 7.503906 -28.519531 10.628906 -25.640625 C 13.691406 -22.816406 18.074219 -21.015625 23.238281 -20.476562 C 30.261719 -19.515625 33.203125 -16.273438 33.023438 -13.449219 C 32.84375 -10.867188 30.082031 -8.285156 25.097656 -8.285156 L 24.796875 -8.285156 C 24.738281 -8.285156 18.195312 -7.925781 14.171875 -11.226562 C 13.148438 -12.007812 12.308594 -12.96875 11.527344 -14.109375 L 4.203125 -9.125 C 5.402344 -7.324219 6.90625 -5.703125 8.585938 -4.324219 C 14.050781 0.121094 21.257812 0.601562 24.136719 0.601562 Z M 24.136719 0.601562 "/></g></g></g><g fill="#e91f63" fill-opacity="1"><g transform="translate(278.940446, 252.749983)"><g><path d="M 40.289062 -48.035156 L 4.203125 -48.035156 L 4.203125 -39.089844 L 17.773438 -39.089844 L 17.773438 0 L 26.71875 0 L 26.71875 -39.089844 L 40.289062 -39.089844 Z M 40.289062 -48.035156 "/></g></g></g><g fill="#e91f63" fill-opacity="1"><g transform="translate(323.4265, 252.749983)"><g><path d="M 32.0625 -39.148438 L 32.0625 -48.097656 L 4.203125 -48.097656 L 4.203125 0 L 32.0625 0 L 32.0625 -8.945312 L 13.210938 -8.945312 L 13.210938 -19.632812 L 24.4375 -19.632812 L 24.4375 -28.582031 L 13.210938 -28.582031 L 13.210938 -39.148438 Z M 32.0625 -39.148438 "/></g></g></g><g clip-path="url(#73e0ede164)"><path fill="#1f1f1f" d="M -146.6875 287.585938 L 435.652344 287.585938 L 435.652344 531.980469 L -146.6875 531.980469 Z M -146.6875 287.585938 " fill-opacity="1" fill-rule="nonzero"/></g><g clip-path="url(#7260faf512)"><path fill="#1f1f1f" d="M -103.867188 -157.386719 L 478.476562 -157.386719 L 478.476562 87.003906 L -103.867188 87.003906 Z M -103.867188 -157.386719 " fill-opacity="1" fill-rule="nonzero"/></g><g clip-path="url(#6f6579244f)"><path fill="#1f1f1f" d="M 171.394531 -47.613281 L 171.394531 535.117188 L 167.644531 535.117188 L 167.644531 -47.613281 Z M 171.394531 -47.613281 " fill-opacity="1" fill-rule="nonzero"/></g><g clip-path="url(#e41fb6f248)"><g clip-path="url(#4fd542817a)"><path fill="#e91f63" d="M 310.632812 105.132812 L 321.167969 105.132812 L 321.167969 115.667969 L 310.632812 115.667969 Z M 310.632812 105.132812 " fill-opacity="1" fill-rule="nonzero"/></g></g></svg>