<?xml version="1.0" encoding="UTF-8" standalone="no"?>
<!-- Created with Inkscape (http://www.inkscape.org/) -->

<svg
   width="500mm"
   height="500mm"
   viewBox="0 0 500 500"
   version="1.1"
   id="svg1"
   xml:space="preserve"
   inkscape:version="1.3.2 (091e20e, 2023-11-25, custom)"
   sodipodi:docname="basit-logo.svg"
   xmlns:inkscape="http://www.inkscape.org/namespaces/inkscape"
   xmlns:sodipodi="http://sodipodi.sourceforge.net/DTD/sodipodi-0.dtd"
   xmlns="http://www.w3.org/2000/svg"
   xmlns:svg="http://www.w3.org/2000/svg"><sodipodi:namedview
     id="namedview1"
     pagecolor="#505050"
     bordercolor="#eeeeee"
     borderopacity="1"
     inkscape:showpageshadow="0"
     inkscape:pageopacity="0"
     inkscape:pagecheckerboard="0"
     inkscape:deskcolor="#505050"
     inkscape:document-units="mm"
     showguides="true"
     inkscape:zoom="0.20558125"
     inkscape:cx="-46.21044"
     inkscape:cy="892.59113"
     inkscape:window-width="1920"
     inkscape:window-height="991"
     inkscape:window-x="-9"
     inkscape:window-y="-9"
     inkscape:window-maximized="1"
     inkscape:current-layer="layer1" /><defs
     id="defs1"><g
       id="g1" /><clipPath
       id="3ce637bc23"><path
         d="M 0,84.441406 H 169.5 V 290.69141 H 0 Z m 0,0"
         clip-rule="nonzero"
         id="path1" /></clipPath><clipPath
       id="73e0ede164"><path
         d="M 0,287.58594 H 375 V 375 H 0 Z m 0,0"
         clip-rule="nonzero"
         id="path2" /></clipPath><clipPath
       id="7260faf512"><path
         d="M 0,0 H 375 V 87.003906 H 0 Z m 0,0"
         clip-rule="nonzero"
         id="path3" /></clipPath><clipPath
       id="6f6579244f"><path
         d="m 167.64453,0 h 3.75 v 375 h -3.75 z m 0,0"
         clip-rule="nonzero"
         id="path4" /></clipPath><clipPath
       id="e41fb6f248"><path
         d="m 310.63281,105.13281 h 10.53516 v 10.53516 h -10.53516 z m 0,0"
         clip-rule="nonzero"
         id="path5" /></clipPath><clipPath
       id="4fd542817a"><path
         d="m 315.89844,105.13281 c -2.90625,0 -5.26563,2.35938 -5.26563,5.26563 0,2.91015 2.35938,5.26953 5.26563,5.26953 2.91015,0 5.26953,-2.35938 5.26953,-5.26953 0,-2.90625 -2.35938,-5.26563 -5.26953,-5.26563 z m 0,0"
         clip-rule="nonzero"
         id="path6" /></clipPath></defs><g
     inkscape:label="Katman 1"
     inkscape:groupmode="layer"
     id="layer1"><g
       id="g2"
       transform="matrix(0.95356198,0,0,0.95356198,33.587947,12.868333)"><path
         fill="#e91f63"
         d="m 302.4562,187.98279 c 33.3313,-22.91345 55.68345,-59.50401 55.68345,-97.709453 0,-57.544416 -50.70097,-96.9117721 -113.25738,-87.9315394 l -94.2926,13.5392794 -18.95498,2.717721 -17.26137,2.471536 C 97.742128,22.458712 84.685313,36.017711 84.685313,54.559187 L 112.66977,84.444053 V 379.08863 c 0,20.21539 17.91131,35.73389 37.9199,32.85862 l 113.24758,-16.257 c 62.55642,-8.97038 113.2574,-62.90103 113.2574,-120.44552 0,-45.06861 -31.1059,-78.9809 -74.63845,-87.26194 z m 0,0"
         fill-opacity="1"
         fill-rule="nonzero"
         id="path10"
         style="stroke-width:2.52077" /><path
         fill="#ffffff"
         d="m 262.02545,301.71283 c 33.32142,-8.13342 55.68339,-34.79846 55.68339,-73.0039 0,-57.53456 -50.70092,-119.41165 -113.2574,-138.189426 l -94.2926,-28.309356 -0.26581,-0.07859 C 86.644886,55.150212 89.726878,23.364842 114.0582,21.109956 c 0.16714,-0.02137 0.33513,-0.02861 0.50233,-0.04292 l 0.007,-0.127846 h -9.83691 c -17.940762,0 -32.494261,13.381789 -32.494261,29.884938 V 419.91996 c 0,16.01084 10.506507,30.13111 25.837874,34.72952 l 12.081967,3.63349 113.25744,34.00089 c 62.54662,18.7777 113.25738,-12.64331 113.25738,-70.18773 0,-45.06861 -31.10588,-92.78606 -74.64822,-120.3865 z m 0,0"
         fill-opacity="1"
         fill-rule="nonzero"
         id="path11"
         style="stroke-width:2.52077" /></g></g></svg>
